<svg id="图层_1" data-name="图层 1" xmlns="http://www.w3.org/2000/svg" viewBox="0 0 1962.34 2230.05"><defs><style>.cls-1{fill:#5f5fcd;}.cls-2{fill:#7373cd;}.cls-3{fill:#4b4bcd;}.cls-4{fill:none;stroke:#000;stroke-miterlimit:10;}</style></defs><title>logo</title><rect class="cls-1" x="421.88" y="34.5" width="1.74" height="1"/><rect class="cls-1" x="574.52" y="52.64" width="1.63" height="1" transform="translate(66.39 489.38) rotate(-57.24)"/><polygon class="cls-2" points="1414.35 860.24 973.65 605.81 532.96 860.24 973.65 1114.68 1414.35 860.24"/><polyline class="cls-2" points="969.6 0 1939.14 559.76 1939.14 559.76 1498.44 814.2 528.91 254.44 969.61 0"/><polygon class="cls-2" points="0 559.97 440.7 814.4 881.39 559.96 440.7 305.53 0 559.97"/><polygon class="cls-3" points="532.96 860.24 532.96 1369.12 973.65 1623.55 973.65 1114.68 532.96 860.24"/><polyline class="cls-3" points="440.69 814.4 440.69 1933.92 440.7 1933.92 0 1679.48 0 559.97 440.7 814.4"/><polygon class="cls-3" points="970.33 2230.05 971.19 1721.18 530.93 1465.99 530.07 1974.87 970.33 2230.05"/><polygon class="cls-1" points="973.65 1114.68 973.65 1623.55 1414.35 1369.12 1414.35 860.24 973.65 1114.68"/><polygon class="cls-1" points="1498.44 1323.31 1939.14 1068.87 1939.14 560 1498.44 814.44 1498.44 1323.31"/><polyline class="cls-1" points="971.31 1721.18 1941.79 1163.06 1941.79 1163.06 1940.93 1671.93 970.45 2230.05 971.31 1721.18"/><line class="cls-4" x1="1961.84" y1="1129.59" x2="1961.84" y2="1131.43"/></svg>