<svg
  t="1688434342646"
  class="icon"
  viewBox="0 0 1024 1024"
  version="1.1"
  xmlns="http://www.w3.org/2000/svg"
  p-id="17619"
  width="16"
  height="16"
>
  <path
    d="M394.395 795.891c-26.407 0-47.89 21.482-47.89 47.891 0 26.407 21.484 47.891 47.89 47.891 26.408 0 47.893-21.483 47.893-47.891-0.001-26.409-21.485-47.891-47.893-47.891zM631.334 42.069H157.458c-39.865 0-72.298 32.433-72.298 72.298v795.266c0 39.866 32.433 72.298 72.298 72.298h473.875c39.865 0 72.297-32.432 72.297-72.298V114.367c0.001-39.865-32.431-72.298-72.296-72.298zM157.458 90.268h473.875c13.289 0 24.1 10.812 24.1 24.1v595.808H133.359V114.367c0-13.288 10.811-24.099 24.099-24.099z m473.876 843.463H157.458c-13.288 0-24.1-10.81-24.1-24.099V762.5h522.075v147.133c0.001 13.289-10.81 24.098-24.099 24.098z"
    p-id="17620"
    fill="#ffffff"
  ></path>
</svg>