<svg
  xmlns="http://www.w3.org/2000/svg"
  width="1024"
  height="1024"
  p-id="17619"
  version="1.1"
  class="icon"
  t="1688434342646"
>

  <g>
    <title>Layer 1</title>
    <path
      id="svg_1"
      fill="#FFFFFF"
      p-id="17620"
      d="m512.00001,795.891c-26.407,0 -47.89,21.482 -47.89,47.891c0,26.407 21.484,47.891 47.89,47.891c26.408,0 47.893,-21.483 47.893,-47.891c-0.001,-26.409 -21.485,-47.891 -47.893,-47.891zm236.939,-753.822l-473.876,0c-39.865,0 -72.298,32.433 -72.298,72.298l0,795.266c0,39.866 32.433,72.298 72.298,72.298l473.875,0c39.865,0 72.297,-32.432 72.297,-72.298l0,-795.266c0.001,-39.865 -32.431,-72.298 -72.296,-72.298zm-473.876,48.199l473.875,0c13.289,0 24.1,10.812 24.1,24.1l0,595.808l-522.074,0l0,-595.809c0,-13.288 10.811,-24.099 24.099,-24.099zm473.876,843.463l-473.876,0c-13.288,0 -24.1,-10.81 -24.1,-24.099l0,-147.132l522.075,0l0,147.133c0.001,13.289 -10.81,24.098 -24.099,24.098z"
    />
  </g>
</svg>